<svg width="980" height="560" viewBox="0 0 980 560" fill="none" xmlns="http://www.w3.org/2000/svg">
  <rect width="980" height="560" rx="18" fill="#f6f7f9"/>
  <rect x="44" y="34" width="892" height="492" rx="14" fill="#ffffff" stroke="#d9dee7"/>
  <rect x="44" y="34" width="290" height="492" rx="14" fill="#111827"/>
  <text x="72" y="88" fill="#ffffff" font-family="Arial, sans-serif" font-size="24" font-weight="700">Knowledge Cards</text>
  <text x="72" y="122" fill="#cbd5e1" font-family="Arial, sans-serif" font-size="15">3 cards</text>
  <rect x="72" y="154" width="226" height="34" rx="9" fill="#1f2937"/>
  <text x="92" y="176" fill="#cbd5e1" font-family="Arial, sans-serif" font-size="14">Search cards...</text>
  <rect x="72" y="216" width="84" height="30" rx="8" fill="#2563eb"/>
  <text x="99" y="236" fill="#ffffff" font-family="Arial, sans-serif" font-size="13">All</text>
  <rect x="166" y="216" width="92" height="30" rx="8" fill="#374151"/>
  <text x="184" y="236" fill="#d1d5db" font-family="Arial, sans-serif" font-size="13">Evidence</text>
  <rect x="380" y="88" width="500" height="114" rx="13" fill="#f8fafc" stroke="#dbe3ef"/>
  <text x="410" y="124" fill="#111827" font-family="Arial, sans-serif" font-size="18" font-weight="700">Shared vault review loop</text>
  <text x="410" y="154" fill="#475569" font-family="Arial, sans-serif" font-size="15">Shared vaults make this more important. One person may review a draft...</text>
  <text x="410" y="180" fill="#64748b" font-family="Arial, sans-serif" font-size="13">demo-note.md · line 7</text>
  <rect x="380" y="230" width="500" height="114" rx="13" fill="#f8fafc" stroke="#dbe3ef"/>
  <text x="410" y="266" fill="#111827" font-family="Arial, sans-serif" font-size="18" font-weight="700">Structured feedback for AI</text>
  <text x="410" y="296" fill="#475569" font-family="Arial, sans-serif" font-size="15">Each annotation stores originalText, feedback, and line positions.</text>
  <text x="410" y="322" fill="#64748b" font-family="Arial, sans-serif" font-size="13">demo-note.md · line 9</text>
  <rect x="380" y="372" width="500" height="84" rx="13" fill="#f8fafc" stroke="#dbe3ef"/>
  <text x="410" y="408" fill="#111827" font-family="Arial, sans-serif" font-size="18" font-weight="700">Copy card content</text>
  <text x="410" y="436" fill="#475569" font-family="Arial, sans-serif" font-size="15">Click a card to copy its source excerpt.</text>
</svg>

